<svg width="150" height="157" viewBox="0 0 150 157" fill="none" xmlns="http://www.w3.org/2000/svg">
<g clip-path="url(#clip0)">
<path d="M75.6932 124.537C104.607 124.537 128.046 101.109 128.046 72.2079C128.046 43.3073 104.607 19.8787 75.6932 19.8787C46.7795 19.8787 23.3403 43.3073 23.3403 72.2079C23.3403 101.109 46.7795 124.537 75.6932 124.537Z" fill="#9F9AFF"/>
<path d="M42.734 76.4086C44.0342 74.8527 45.6604 73.6012 47.4976 72.7424C49.3348 71.8836 51.3382 71.4384 53.3664 71.4384C55.3946 71.4384 57.3981 71.8836 59.2353 72.7424C61.0725 73.6012 62.6986 74.8527 63.9988 76.4086C66.2237 74.2857 67.7614 71.5453 68.4139 68.5408C69.0664 65.5363 68.8037 62.4054 67.6596 59.5515C66.5156 56.6976 64.5427 54.2516 61.9952 52.5287C59.4476 50.8058 56.4423 49.885 53.3664 49.885C50.2906 49.885 47.2852 50.8058 44.7377 52.5287C42.1902 54.2516 40.2172 56.6976 39.0732 59.5515C37.9292 62.4054 37.6665 65.5363 38.3189 68.5408C38.9714 71.5453 40.5092 74.2857 42.734 76.4086Z" fill="white"/>
<path d="M84.3082 76.4086C85.6084 74.8527 87.2346 73.6012 89.0718 72.7424C90.909 71.8836 92.9124 71.4384 94.9406 71.4384C96.9688 71.4384 98.9723 71.8836 100.809 72.7424C102.647 73.6012 104.273 74.8527 105.573 76.4086C107.798 74.2857 109.336 71.5454 109.988 68.5409C110.641 65.5364 110.378 62.4054 109.234 59.5515C108.09 56.6976 106.117 54.2516 103.569 52.5287C101.022 50.8058 98.0165 49.885 94.9406 49.885C91.8648 49.885 88.8594 50.8058 86.3119 52.5287C83.7644 54.2516 81.7914 56.6976 80.6474 59.5515C79.5034 62.4054 79.2407 65.5364 79.8932 68.5409C80.5456 71.5454 82.0834 74.2857 84.3082 76.4086Z" fill="white"/>
<path d="M48.1136 65.3294C51.0389 65.3294 53.4103 62.959 53.4103 60.0351C53.4103 57.1111 51.0389 54.7407 48.1136 54.7407C45.1883 54.7407 42.8169 57.1111 42.8169 60.0351C42.8169 62.959 45.1883 65.3294 48.1136 65.3294Z" fill="#9F9AFF"/>
<path d="M89.6864 65.3294C92.6116 65.3294 94.9831 62.959 94.9831 60.0351C94.9831 57.1111 92.6116 54.7407 89.6864 54.7407C86.7611 54.7407 84.3896 57.1111 84.3896 60.0351C84.3896 62.959 86.7611 65.3294 89.6864 65.3294Z" fill="#9F9AFF"/>
<path d="M37.9682 91.4465C41.3699 91.4465 44.1274 88.6902 44.1274 85.2902C44.1274 81.8901 41.3699 79.1338 37.9682 79.1338C34.5666 79.1338 31.8091 81.8901 31.8091 85.2902C31.8091 88.6902 34.5666 91.4465 37.9682 91.4465Z" fill="#FF6584"/>
<path d="M108.799 91.4465C112.2 91.4465 114.958 88.6902 114.958 85.2902C114.958 81.8901 112.2 79.1338 108.799 79.1338C105.397 79.1338 102.64 81.8901 102.64 85.2902C102.64 88.6902 105.397 91.4465 108.799 91.4465Z" fill="#FF6584"/>
<path d="M73.3835 72.9773L68.7642 92.9856L76.463 85.2902L73.3835 72.9773Z" fill="#FF6584"/>
<path d="M97.1191 149.932L91.8746 145.533L91.9968 149.932H90.3679L90.2378 145.28L83.1569 149.932H80.1926L90.1849 143.368L89.7978 129.583L89.5087 119.172L91.1335 119.127L91.4267 129.583L91.8135 143.355L99.6515 149.932H97.1191Z" fill="#9F9AFF"/>
<path d="M72.4805 149.932L67.236 145.533L67.3582 149.932H65.7337L65.6033 145.28L58.5224 149.932H55.5581L65.5463 143.368L65.1595 129.583L64.8704 119.172L66.499 119.127L66.7922 129.583L67.1749 143.355L75.0133 149.932H72.4805Z" fill="#9F9AFF"/>
<path d="M76.4631 16.0309C75.0266 16.0309 73.7594 17.1462 72.9121 18.8594C72.1653 16.2833 70.5964 14.4918 68.7641 14.4918C68.6396 14.5042 68.5161 14.5249 68.3943 14.5539C67.69 11.8035 66.0532 9.87451 64.1448 9.87451C61.5935 9.87451 59.5254 13.3199 59.5254 17.57C59.5254 21.8201 61.5935 25.2655 64.1448 25.2655C64.2693 25.2531 64.3928 25.2324 64.5146 25.2034C65.2189 27.9538 66.8557 29.8828 68.7641 29.8828C70.2007 29.8828 71.4679 28.7674 72.3151 27.0543C73.0619 29.6304 74.6308 31.4218 76.4631 31.4218C79.0143 31.4218 81.0825 27.9764 81.0825 23.7264C81.0825 19.4763 79.0143 16.0309 76.4631 16.0309Z" fill="#9F9AFF"/>
<path d="M26.5532 92.0383C24.5311 92.0383 22.5289 91.6402 20.6607 90.8668C18.7926 90.0933 17.0951 88.9596 15.6653 87.5304C14.2354 86.1012 13.1012 84.4046 12.3274 82.5372C11.5536 80.6699 11.1553 78.6685 11.1553 76.6474L11.1553 68.9519C11.1553 64.8699 12.7776 60.9552 15.6653 58.0688C18.5529 55.1824 22.4695 53.5609 26.5532 53.5609L26.5532 92.0383Z" fill="#6C63FF"/>
<path d="M124.833 53.5608C126.855 53.5608 128.857 53.9589 130.726 54.7324C132.594 55.5058 134.291 56.6395 135.721 58.0687C137.151 59.4979 138.285 61.1946 139.059 63.0619C139.833 64.9292 140.231 66.9306 140.231 68.9517V76.6472C140.231 78.6684 139.833 80.6698 139.059 82.5371C138.285 84.4044 137.151 86.1011 135.721 87.5303C134.291 88.9595 132.594 90.0932 130.726 90.8666C128.857 91.6401 126.855 92.0382 124.833 92.0382V53.5608H124.833Z" fill="#6C63FF"/>
<path d="M132.902 70.1612H130.459C130.459 39.1917 105.252 13.9959 74.268 13.9959C43.2845 13.9959 18.0774 39.1917 18.0774 70.1612H15.6343C15.6343 37.8451 41.9373 11.554 74.268 11.554C106.599 11.554 132.902 37.8451 132.902 70.1612Z" fill="#6C63FF"/>
</g>
<defs>
<clipPath id="clip0">
<rect width="150" height="157" fill="white"/>
</clipPath>
</defs>
</svg>
