<svg width="177" height="147" viewBox="0 0 177 147" fill="none" xmlns="http://www.w3.org/2000/svg">
<g clip-path="url(#clip0)">
<path d="M67.7963 131.202C94.109 131.202 115.44 109.922 115.44 83.6709C115.44 57.4201 94.109 36.1396 67.7963 36.1396C41.4837 36.1396 20.1531 57.4201 20.1531 83.6709C20.1531 109.922 41.4837 131.202 67.7963 131.202Z" fill="#9F9AFF"/>
<path d="M124.106 116.344H81.4231V130.783H124.106V116.344Z" fill="#9F9AFF"/>
<path d="M124.407 130.784C126.905 130.784 128.93 125.396 128.93 118.75C128.93 112.105 126.905 106.717 124.407 106.717C121.909 106.717 119.884 112.105 119.884 118.75C119.884 125.396 121.909 130.784 124.407 130.784Z" fill="#9F9AFF"/>
<path d="M114.15 115.24H71.4668V129.68H114.15V115.24Z" fill="#9F9AFF"/>
<path d="M114.451 129.68C116.949 129.68 118.974 124.292 118.974 117.647C118.974 111.001 116.949 105.613 114.451 105.613C111.953 105.613 109.928 111.001 109.928 117.647C109.928 124.292 111.953 129.68 114.451 129.68Z" fill="#9F9AFF"/>
<path d="M21.5808 39.4683C17.7339 22.2803 30.031 4.91257 49.0475 0.676346C68.0639 -3.55988 86.5983 6.93968 90.4452 24.1277C94.2922 41.3157 81.6893 47.655 62.673 51.8911C43.6566 56.1273 25.4278 56.6563 21.5808 39.4683Z" fill="#6C63FF"/>
<path d="M86.1076 80.9644C83.6158 81.0149 81.171 80.2832 79.1186 78.8726C77.0661 77.462 75.5097 75.4438 74.6691 73.103C74.6229 72.9656 74.6042 72.8205 74.6142 72.6759C74.6242 72.5313 74.6626 72.3901 74.7273 72.2603C74.792 72.1305 74.8816 72.0147 74.9911 71.9195C75.1007 71.8243 75.228 71.7515 75.3657 71.7054C75.5034 71.6593 75.6489 71.6407 75.7938 71.6506C75.9388 71.6606 76.0803 71.6989 76.2104 71.7634C76.3404 71.8279 76.4565 71.9174 76.5519 72.0267C76.6474 72.136 76.7203 72.2629 76.7666 72.4003C78.4416 77.3753 84.1765 79.9771 89.5488 78.1982C92.2162 77.3317 94.4321 75.4483 95.7134 72.9586C96.2632 71.8864 96.5938 70.7158 96.686 69.515C96.7782 68.3142 96.6302 67.107 96.2505 65.9638C96.2042 65.8264 96.1855 65.6813 96.1955 65.5367C96.2055 65.3921 96.2439 65.2509 96.3086 65.1211C96.3733 64.9913 96.4629 64.8755 96.5725 64.7803C96.682 64.6851 96.8093 64.6123 96.947 64.5662C97.0847 64.52 97.2302 64.5014 97.3752 64.5114C97.5201 64.5213 97.6616 64.5596 97.7917 64.6242C97.9218 64.6887 98.0378 64.7782 98.1333 64.8875C98.2287 64.9968 98.3017 65.1237 98.3479 65.2611C98.8212 66.6796 99.0069 68.1778 98.8944 69.6686C98.7819 71.1594 98.3735 72.613 97.6927 73.9448C96.1471 76.9585 93.4701 79.2405 90.2452 80.2935C88.9109 80.7366 87.5139 80.9631 86.1076 80.9644V80.9644Z" fill="white"/>
<path d="M107.33 87.4242C108.609 89.9188 108.842 92.818 107.978 95.4841C107.114 98.1502 105.224 100.365 102.724 101.641C100.223 102.916 97.3173 103.149 94.6449 102.287C91.9726 101.425 89.7528 99.5397 88.474 97.0451L88.4645 97.0266C85.8066 91.8293 89.4793 88.6033 94.6889 85.9517C99.8985 83.3 104.672 82.2269 107.33 87.4242Z" fill="white"/>
<path d="M57.1375 146.595C61.5748 145.453 62.2169 133.096 58.5715 118.994C54.9262 104.892 48.3738 94.386 43.9364 95.5277C39.4991 96.6694 38.857 109.027 42.5024 123.128C46.1477 137.23 52.7001 147.736 57.1375 146.595Z" fill="#9F9AFF"/>
</g>
<defs>
<clipPath id="clip0">
<rect width="177" height="147" fill="white"/>
</clipPath>
</defs>
</svg>
