<svg width="174" height="154" viewBox="0 0 174 154" fill="none" xmlns="http://www.w3.org/2000/svg">
<g clip-path="url(#clip0)">
<path d="M89.5777 133.75C114.5 133.75 134.704 113.529 134.704 88.5849C134.704 63.641 114.5 43.4199 89.5777 43.4199C64.6553 43.4199 44.4517 63.641 44.4517 88.5849C44.4517 113.529 64.6553 133.75 89.5777 133.75Z" fill="#9F9AFF"/>
<path d="M82.7231 124.031H69.0139V148.615H82.7231V124.031Z" fill="#9F9AFF"/>
<path d="M110.142 124.031H96.4324V148.615H110.142V124.031Z" fill="#9F9AFF"/>
<path d="M80.4382 153.188C86.7477 153.188 91.8626 151.269 91.8626 148.901C91.8626 146.533 86.7477 144.613 80.4382 144.613C74.1288 144.613 69.0139 146.533 69.0139 148.901C69.0139 151.269 74.1288 153.188 80.4382 153.188Z" fill="#9F9AFF"/>
<path d="M107.857 152.617C114.166 152.617 119.281 150.697 119.281 148.329C119.281 145.961 114.166 144.041 107.857 144.041C101.547 144.041 96.4324 145.961 96.4324 148.329C96.4324 150.697 101.547 152.617 107.857 152.617Z" fill="#9F9AFF"/>
<path d="M138.206 68.8491C147.978 59.0603 153.412 48.6357 150.341 45.565C147.271 42.4944 136.86 47.9405 127.087 57.7294C117.314 67.5182 111.881 77.9429 114.951 81.0135C118.021 84.0841 128.433 78.6379 138.206 68.8491Z" fill="#9F9AFF"/>
<path d="M53.2048 84.1596C56.2752 81.089 50.8417 70.6643 41.0689 60.8755C31.2961 51.0867 20.8846 45.6405 17.8142 48.7111C14.7439 51.7818 20.1773 62.2064 29.9502 71.9952C39.723 81.7841 50.1345 87.2302 53.2048 84.1596Z" fill="#9F9AFF"/>
<path d="M87.6792 97.621C96.197 97.621 103.102 90.7101 103.102 82.1849C103.102 73.6598 96.197 66.7488 87.6792 66.7488C79.1614 66.7488 72.2563 73.6598 72.2563 82.1849C72.2563 90.7101 79.1614 97.621 87.6792 97.621Z" fill="white"/>
<path d="M87.6793 87.3301C90.5186 87.3301 92.8203 85.0265 92.8203 82.1847C92.8203 79.343 90.5186 77.0393 87.6793 77.0393C84.84 77.0393 82.5383 79.343 82.5383 82.1847C82.5383 85.0265 84.84 87.3301 87.6793 87.3301Z" fill="#3F3D56"/>
<path d="M99.9221 110.733C100.398 113.353 99.8157 116.054 98.302 118.243C96.7883 120.433 94.4677 121.931 91.8506 122.407C89.2335 122.884 86.5343 122.301 84.3468 120.786C82.1593 119.271 80.6628 116.948 80.1863 114.329L80.1828 114.31C79.196 108.854 83.4105 106.924 88.8613 105.936C94.3121 104.948 98.9353 105.278 99.9221 110.733Z" fill="white"/>
<path d="M88.4156 58.961C80.3976 58.9528 72.4267 57.734 64.772 55.3458C64.2402 55.174 63.7762 54.8384 63.4464 54.3868C63.1167 53.9352 62.938 53.3909 62.936 52.8316V34.4474C62.9369 33.7524 63.2131 33.086 63.7042 32.5945C64.1952 32.103 64.8611 31.8265 65.5555 31.8257H111.659C112.353 31.8265 113.019 32.103 113.51 32.5945C114.001 33.086 114.278 33.7524 114.278 34.4474V52.8208C114.279 53.3849 114.098 53.9341 113.762 54.3872C113.426 54.8403 112.954 55.1734 112.415 55.3371C104.636 57.7159 96.5495 58.9369 88.4156 58.961Z" fill="#6C63FF"/>
<path opacity="0.2" d="M113.754 34.4473V37.52L88.8062 46.2767C88.3399 46.4377 87.832 46.4303 87.3706 46.2557L63.46 37.2683V34.4473C63.4616 33.8915 63.6829 33.359 64.0755 32.966C64.4682 32.573 65.0003 32.3515 65.5556 32.3499H111.659C112.214 32.3515 112.746 32.573 113.139 32.966C113.532 33.359 113.753 33.8915 113.754 34.4473Z" fill="black"/>
<path d="M88.1083 42.7234C87.7939 42.7237 87.482 42.6673 87.1876 42.557L51.4564 29.1287C50.9512 28.9388 50.517 28.5973 50.213 28.151C49.909 27.7048 49.7501 27.1754 49.7581 26.6354C49.7661 26.0953 49.9405 25.5709 50.2575 25.1338C50.5746 24.6967 51.0187 24.3683 51.5293 24.1934L85.1485 12.6822C85.6917 12.4981 86.2799 12.4956 86.8246 12.675L124.346 25.1934C124.865 25.3664 125.316 25.6971 125.637 26.1395C125.958 26.5819 126.133 27.1137 126.138 27.6605C126.142 28.2073 125.975 28.7418 125.661 29.189C125.346 29.6363 124.9 29.974 124.385 30.1549L88.9744 42.5765C88.6961 42.674 88.4032 42.7237 88.1083 42.7234Z" fill="#6C63FF"/>
<path d="M55.6015 41.7885H54.5537V26.5823H86.5117V27.631H55.6015V41.7885Z" fill="#3F3D56"/>
<path d="M55.0775 44.9346C56.2349 44.9346 57.1731 43.9955 57.1731 42.8372C57.1731 41.6788 56.2349 40.7397 55.0775 40.7397C53.9202 40.7397 52.9819 41.6788 52.9819 42.8372C52.9819 43.9955 53.9202 44.9346 55.0775 44.9346Z" fill="#3F3D56"/>
</g>
<defs>
<clipPath id="clip0">
<rect width="174" height="154" fill="white"/>
</clipPath>
</defs>
</svg>
