<svg width="174" height="145" viewBox="0 0 174 145" fill="none" xmlns="http://www.w3.org/2000/svg">
<path d="M91.769 119.665C120.183 119.665 143.217 96.5976 143.217 68.143C143.217 39.6884 120.183 16.6213 91.769 16.6213C63.3554 16.6213 40.3215 39.6884 40.3215 68.143C40.3215 96.5976 63.3554 119.665 91.769 119.665Z" fill="#9F9AFF"/>
<path d="M59.3799 72.2788C60.6576 70.7469 62.2556 69.5147 64.0611 68.6691C65.8665 67.8235 67.8353 67.3853 69.8284 67.3853C71.8215 67.3853 73.7903 67.8235 75.5958 68.6691C77.4012 69.5147 78.9992 70.7469 80.277 72.2788C82.4417 70.2093 83.945 67.5434 84.5968 64.6183C85.2486 61.6932 85.0196 58.6402 83.9388 55.8454C82.858 53.0506 80.9739 50.6395 78.5247 48.9171C76.0756 47.1946 73.1714 46.2382 70.1795 46.1686C67.1875 46.0991 64.2422 46.9196 61.7159 48.5264C59.1896 50.1332 57.1959 52.4542 55.9867 55.1958C54.7776 57.9373 54.4074 60.9764 54.923 63.9286C55.4386 66.8809 56.8168 69.6137 58.8834 71.7816C59.045 71.9511 59.2105 72.1169 59.3799 72.2788Z" fill="white"/>
<path d="M100.235 72.2788C101.513 70.7469 103.111 69.5147 104.916 68.6691C106.722 67.8236 108.691 67.3853 110.684 67.3853C112.677 67.3853 114.646 67.8236 116.451 68.6691C118.256 69.5147 119.854 70.7469 121.132 72.2788C123.297 70.2093 124.8 67.5434 125.452 64.6183C126.104 61.6932 125.875 58.6402 124.794 55.8454C123.713 53.0506 121.829 50.6395 119.38 48.9171C116.931 47.1946 114.027 46.2382 111.035 46.1686C108.043 46.0991 105.097 46.9196 102.571 48.5264C100.045 50.1332 98.0511 52.4542 96.842 55.1958C95.6328 57.9373 95.2627 60.9764 95.7783 63.9286C96.2939 66.8809 97.6721 69.6137 99.7386 71.7816C99.9002 71.9511 100.066 72.1169 100.235 72.2788Z" fill="white"/>
<path d="M64.6666 61.3708C67.5413 61.3708 69.8717 59.037 69.8717 56.1582C69.8717 53.2793 67.5413 50.9456 64.6666 50.9456C61.7918 50.9456 59.4614 53.2793 59.4614 56.1582C59.4614 59.037 61.7918 61.3708 64.6666 61.3708Z" fill="#9F9AFF"/>
<path d="M105.52 61.3708C108.395 61.3708 110.725 59.037 110.725 56.1582C110.725 53.2793 108.395 50.9456 105.52 50.9456C102.646 50.9456 100.315 53.2793 100.315 56.1582C100.315 59.037 102.646 61.3708 105.52 61.3708Z" fill="#9F9AFF"/>
<path d="M54.6967 87.0849C58.0395 87.0849 60.7493 84.3711 60.7493 81.0235C60.7493 77.6759 58.0395 74.9622 54.6967 74.9622C51.3539 74.9622 48.644 77.6759 48.644 81.0235C48.644 84.3711 51.3539 87.0849 54.6967 87.0849Z" fill="#6C63FF"/>
<path d="M124.302 87.0849C127.645 87.0849 130.355 84.3712 130.355 81.0235C130.355 77.6759 127.645 74.9622 124.302 74.9622C120.959 74.9622 118.25 77.6759 118.25 81.0235C118.25 84.3712 120.959 87.0849 124.302 87.0849Z" fill="#6C63FF"/>
<path d="M89.4994 68.9004L84.96 88.5999L92.5254 81.0236L89.4994 68.9004Z" fill="#6C63FF"/>
<path d="M112.825 144.668L107.671 140.336L107.791 144.668H106.19L106.062 140.088L99.1036 144.668H96.1907L106.01 138.204L105.63 124.632L105.345 114.382L106.942 114.338L107.231 124.632L107.61 138.192L115.313 144.668H112.825Z" fill="#9F9AFF"/>
<path d="M88.6119 144.668L83.4583 140.336L83.5784 144.668H81.982L81.8539 140.088L74.8951 144.668H71.9822L81.798 138.204L81.4178 124.632L81.1337 114.382L82.7339 114.338L83.0222 124.632L83.3982 138.192L91.1009 144.668H88.6119Z" fill="#9F9AFF"/>
<path d="M92.5256 12.8331C91.114 12.8331 89.8686 13.9312 89.036 15.6179C88.3022 13.0816 86.7604 11.3178 84.9598 11.3178C84.8374 11.3299 84.716 11.3504 84.5964 11.3789C83.9043 8.6709 82.2957 6.77173 80.4203 6.77173C77.9132 6.77173 75.8809 10.164 75.8809 14.3484C75.8809 18.5329 77.9132 21.9252 80.4203 21.9252C80.5427 21.913 80.6641 21.8926 80.7837 21.864C81.4759 24.572 83.0844 26.4712 84.9598 26.4712C86.3715 26.4712 87.6168 25.373 88.4494 23.6863C89.1832 26.2227 90.725 27.9865 92.5256 27.9865C95.0327 27.9865 97.0651 24.5943 97.0651 20.4098C97.0651 16.2253 95.0327 12.8331 92.5256 12.8331Z" fill="#9F9AFF"/>
<path d="M43.2629 69.7461L14.922 65.1426C13.4938 64.9106 12.0396 64.6782 10.6069 64.8801C9.17414 65.082 7.73994 65.7884 7.00957 67.0392C6.65856 67.6403 6.48839 68.3301 6.51949 69.0258C6.5506 69.7214 6.78166 70.3932 7.18492 70.9605C7.58817 71.5278 8.14646 71.9664 8.79265 72.2235C9.43884 72.4806 10.1454 72.5454 10.8275 72.41C9.28051 72.3598 7.65456 72.3265 6.2818 73.0425C4.90904 73.7585 3.937 75.4978 4.60627 76.8954C4.80709 77.2811 5.07877 77.6255 5.40708 77.9103C6.44015 78.8376 7.71432 79.4531 9.08212 79.6854C10.4499 79.9177 11.8554 79.7574 13.1361 79.223C12.0927 80.7214 10.0224 80.9439 8.23147 81.2908C6.44057 81.6378 4.37024 82.6523 4.30368 84.4778C4.2289 86.529 6.66652 87.6191 8.67326 88.0367C19.3886 90.2447 30.511 89.3368 40.7279 85.4203C41.8761 85.0246 42.9629 84.4689 43.9563 83.7695C45.0697 82.9228 45.9159 81.7727 46.3935 80.4568C46.8712 79.141 46.9601 77.7152 46.6496 76.3501C46.339 74.9849 45.6422 73.7384 44.6426 72.7595C43.643 71.7807 42.3828 71.1111 41.013 70.8309" fill="#9F9AFF"/>
<path d="M165.592 93.0097C160.914 83.1061 153.505 74.7492 144.239 68.9252C143.233 68.2439 142.137 67.708 140.981 67.3333C139.636 66.9509 138.21 66.9648 136.873 67.3733C135.535 67.7818 134.344 68.5676 133.441 69.6365C132.538 70.7055 131.962 72.0124 131.782 73.4007C131.601 74.7891 131.824 76.2001 132.424 77.4649L130.206 76.3161C134.659 84.7998 139.111 93.2835 143.564 101.767C144.237 103.05 144.926 104.353 145.948 105.379C146.97 106.404 148.396 107.128 149.833 106.961C150.404 106.896 150.95 106.696 151.428 106.377C151.905 106.057 152.299 105.627 152.576 105.124C152.853 104.62 153.005 104.058 153.02 103.483C153.035 102.908 152.912 102.338 152.662 101.821C153.287 102.703 154.109 103.427 155.062 103.935C156.458 104.604 158.431 104.336 159.144 102.961C159.331 102.568 159.442 102.144 159.473 101.71C159.592 100.326 159.317 98.9359 158.681 97.7015C158.044 96.4671 157.071 95.4384 155.875 94.7346C157.698 94.6692 159.12 96.1925 160.473 97.4175C161.826 98.6424 163.88 99.6899 165.377 98.646C167.059 97.4732 166.464 94.8669 165.592 93.0097Z" fill="#9F9AFF"/>
</svg>
