<svg width="188" height="162" viewBox="0 0 188 162" fill="none" xmlns="http://www.w3.org/2000/svg">
<g clip-path="url(#clip0)">
<path d="M46.6486 52.0308C46.6486 52.0308 26.5415 58.9581 22.6854 65.3525C18.8293 71.7469 46.6486 52.0308 46.6486 52.0308Z" fill="#9F9AFF"/>
<path d="M11.9074 74.2043C11.7676 74.2148 11.6271 74.195 11.4955 74.1465C11.3639 74.0979 11.2443 74.0216 11.1447 73.9228C10.5191 73.3592 11.0304 72.2936 11.4691 71.5408C17.3517 61.454 46.9297 50.8244 48.1857 50.3769L50.8906 49.4133L48.5744 51.1106C48.4888 51.1735 39.8841 57.4737 31.0754 63.4092C17.3808 72.6374 13.315 74.2043 11.9074 74.2043ZM45.557 52.2622C37.7904 55.2693 16.8601 63.962 12.1942 71.9637C11.5728 73.0291 11.7043 73.2967 11.7059 73.299C11.8317 73.4346 13.4211 74.2861 30.5043 62.7822C36.4594 58.772 42.3346 54.5842 45.557 52.2622V52.2622Z" fill="#3F3D56"/>
<path d="M46.2129 45.1116C46.2129 45.1116 27.6835 43.2064 22.0624 46.4623C16.4413 49.7181 46.2129 45.1116 46.2129 45.1116Z" fill="#9F9AFF"/>
<path d="M20.9631 48.2257C14.4771 48.2257 14.0318 47.1857 13.8278 46.7101C13.4202 45.7586 14.5546 44.8627 14.9273 44.5683C22.97 38.2164 47.3987 44.6355 48.4347 44.9117L50.4215 45.4417L48.386 45.7324C48.304 45.7441 40.1192 46.9086 31.8594 47.6376C27.0423 48.0628 23.5296 48.2257 20.9631 48.2257ZM26.647 42.6284C22.0786 42.6284 17.8994 43.2904 15.4476 45.2268C14.7078 45.8109 14.5242 46.2051 14.5992 46.3792C14.7872 46.8177 16.5819 48.1437 31.7857 46.8017C37.4512 46.3016 43.081 45.5962 46.071 45.2005C42.24 44.3185 33.9466 42.6284 26.647 42.6284Z" fill="#3F3D56"/>
<path d="M51.5154 41.8471C51.5154 41.8471 42.1952 19.4616 44.4534 17.2458C46.7116 15.0301 51.5154 41.8471 51.5154 41.8471Z" fill="#9F9AFF"/>
<path d="M52.031 43.8163L50.8721 40.8543C50.8439 40.7818 48.0082 33.516 45.6716 26.0356C40.8586 10.63 42.8315 9.31442 43.4796 8.88211C43.6395 8.76744 43.8274 8.69816 44.0235 8.6816C44.2196 8.66505 44.4165 8.70183 44.5934 8.78807C48.2286 10.4825 51.3375 37.5719 51.6799 40.6552L52.031 43.8163ZM44.1178 9.51746C44.0552 9.52053 43.9949 9.54245 43.9449 9.58036C41.6288 11.125 46.3242 26.3321 50.4518 37.4006C49.0361 25.9877 46.429 10.5695 44.2391 9.5486C44.2014 9.52936 44.16 9.51872 44.1178 9.51746Z" fill="#3F3D56"/>
<path d="M55.0383 46.7699C55.0383 46.7699 60.0408 24.1431 65.2815 24.1431C70.5221 24.1431 55.0383 46.7699 55.0383 46.7699Z" fill="#9F9AFF"/>
<path d="M53.7185 48.3313L54.2134 46.4683C54.5767 45.1021 63.2142 13.0078 72.6566 13.0078C73.9511 13.0078 74.5095 13.6153 74.7504 14.1248C77.2681 19.4586 57.2354 44.0556 54.943 46.8426L53.7185 48.3313ZM72.6566 13.847C65.1199 13.847 57.6282 37.6747 55.5738 44.7366C62.3335 36.3357 75.8069 18.3289 73.9917 14.4832C73.9171 14.3258 73.6914 13.847 72.6566 13.847Z" fill="#3F3D56"/>
<path d="M57.9746 46.9956C57.9746 46.9956 75.1734 36.1243 110.41 39.4428C145.646 42.7613 57.9746 46.9956 57.9746 46.9956Z" fill="#9F9AFF"/>
<path d="M56.8015 47.4491L57.7019 46.6771C57.8842 46.5208 62.2687 42.8136 71.0537 39.8323C79.1377 37.0883 92.6136 34.5035 110.903 37.771C118.63 39.1513 119.634 40.1798 119.567 41.0856C119.5 41.9805 119.344 44.0765 88.4708 46.0196C73.3837 46.9691 58.139 47.4108 57.9866 47.4151L56.8015 47.4491ZM94.3042 37.084C74.4378 37.084 62.6927 44.1449 59.2873 46.5353C63.3186 46.4062 75.924 45.9684 88.42 45.1819C117.109 43.3762 118.702 41.4011 118.73 41.0235C118.733 40.9832 118.712 40.0182 110.756 38.5971C105.327 37.6082 99.8219 37.1019 94.3042 37.084Z" fill="#3F3D56"/>
<path d="M68.8811 48.2705C68.8811 48.2705 99.0073 47.8683 100.7 51.086C102.392 54.3037 68.8811 48.2705 68.8811 48.2705Z" fill="#9F9AFF"/>
<path d="M104.558 56.4928C94.9416 56.4928 71.8275 49.5859 68.7596 48.6559L66.2456 47.894L68.8719 47.835C72.7255 47.7487 106.583 47.1853 108.713 54.0036C108.965 54.8113 108.673 55.3294 108.383 55.622C107.776 56.2336 106.42 56.4928 104.558 56.4928ZM71.6292 48.6357C85.7601 52.7784 105.382 57.4592 107.787 55.0311C107.917 54.8996 108.049 54.6925 107.912 54.254C106.399 49.4099 83.3071 48.5564 71.6292 48.6357Z" fill="#3F3D56"/>
<path d="M63.0085 51.6113C63.0085 51.6113 81.2049 60.0242 77.6493 62.6128C74.0937 65.2013 63.0085 51.6113 63.0085 51.6113Z" fill="#9F9AFF"/>
<path d="M88.9868 72.7913C80.1847 72.7913 62.2625 51.6136 61.4288 50.6226L60.249 49.2197L61.9216 49.9696C63.142 50.5169 91.8179 63.4465 92.4455 69.9229C92.5287 70.7818 92.1518 71.5329 91.3558 72.0951C90.6591 72.5707 89.8301 72.8143 88.9868 72.7913ZM63.3062 51.5237C70.2269 59.466 85.6248 75.1155 90.8716 71.4095C91.4304 71.0151 91.6651 70.5685 91.6106 70.0038C91.1592 65.3474 72.4202 55.7459 63.3062 51.5237Z" fill="#3F3D56"/>
<path d="M93.2112 61.6816C93.2112 61.6816 108.313 67.9757 104.957 72.1717C101.601 76.3677 93.2112 61.6816 93.2112 61.6816Z" fill="#9F9AFF"/>
<path d="M65.106 56.6465C65.106 56.6465 96.5671 91.054 93.6307 93.152C90.6944 95.25 65.106 56.6465 65.106 56.6465Z" fill="#9F9AFF"/>
<path d="M59.2332 54.1289C59.2332 54.1289 72.4791 76.1962 69.7758 78.3417C67.0726 80.4871 59.2332 54.1289 59.2332 54.1289Z" fill="#9F9AFF"/>
<path d="M74.2259 86.608C74.0607 86.6068 73.8967 86.5793 73.7401 86.5264C68.8841 84.9308 59.0967 56.2672 57.9968 53.004L57.0186 50.1021L58.7411 52.634C58.7923 52.7096 63.9408 60.2897 68.5097 68.1317C76.9559 82.6287 76.2558 85.4795 74.9945 86.3625C74.7701 86.5225 74.5014 86.6083 74.2259 86.608ZM59.8587 55.8269C63.4288 65.9642 70.6161 84.6167 74.0019 85.7294C74.0848 85.7644 74.1752 85.7777 74.2647 85.7682C74.3542 85.7587 74.4398 85.7266 74.5135 85.6749C75.2066 85.1897 75.9387 82.5502 67.7866 68.5574C64.8945 63.5931 61.768 58.7324 59.8587 55.8269H59.8587Z" fill="#3F3D56"/>
<path d="M53.6294 53.2896C53.6294 53.2896 41.7079 88.4766 49.0234 88.1138C56.3388 87.7511 53.6294 53.2896 53.6294 53.2896Z" fill="#9F9AFF"/>
<path d="M46.0559 93.9945C44.7721 93.9945 43.7848 93.4925 43.1195 92.5008C38.3999 85.4647 52.3809 54.4339 52.9782 53.1163L53.616 51.7102L53.7774 53.2458C53.9097 54.5024 56.9375 84.1143 50.0787 92.0251C48.9943 93.2753 47.7044 93.9367 46.2448 93.9908C46.1813 93.9932 46.1182 93.9945 46.0559 93.9945ZM53.0904 54.9416C50.3265 61.2988 39.9132 86.2146 43.8163 92.0333C44.3481 92.8266 45.1321 93.1942 46.2136 93.1524C47.4491 93.1065 48.506 92.5578 49.445 91.4752C55.1784 84.8624 53.6295 61.331 53.0904 54.9416Z" fill="#3F3D56"/>
<path d="M49.5117 55.0386C49.5117 55.0386 29.5004 77.9331 31.3318 80.3444C33.1632 82.7557 49.5117 55.0386 49.5117 55.0386Z" fill="#9F9AFF"/>
<path d="M25.3117 88.6908C25.0467 88.6951 24.7881 88.6094 24.578 88.4478C24.4354 88.3318 24.3192 88.1867 24.2371 88.0222C24.155 87.8577 24.1089 87.6776 24.102 87.4938C23.5994 81.8063 50.2369 52.1695 51.3708 50.9107L54.0524 47.9346L52.0455 51.4018C51.1901 52.8795 31.0378 87.6024 25.6111 88.6605C25.5125 88.6801 25.4123 88.6903 25.3117 88.6908ZM49.1644 54.6531C40.3389 64.6794 24.5887 83.4716 24.9377 87.4201C24.9346 87.4888 24.947 87.5573 24.974 87.6206C25.0009 87.6838 25.0417 87.7402 25.0934 87.7856C25.145 87.8209 25.2041 87.8439 25.266 87.8528C25.3279 87.8617 25.3911 87.8562 25.4506 87.8368C29.2009 87.1058 42.302 66.2055 49.1644 54.6531H49.1644Z" fill="#3F3D56"/>
<path d="M43.5054 39.6221C43.5054 39.6221 26.059 19.008 9.92589 21.0057C-6.20724 23.0035 43.5054 39.6221 43.5054 39.6221Z" fill="#9F9AFF"/>
<path d="M45.831 40.5854L44.4578 40.2715C44.3476 40.2463 33.321 37.7166 22.4194 34.4895C0.0959292 27.8813 0.0238304 24.8427 0.000491408 23.8443C-0.0281845 22.6396 1.1979 21.7078 3.7488 20.9956C13.2154 18.3524 23.9044 23.5589 31.2019 28.3931C36.1025 31.6695 40.6742 35.4129 44.8531 39.571L45.831 40.5854ZM9.16641 21.1175C7.41244 21.1086 5.6655 21.3396 3.97408 21.8041C1.93484 22.3732 0.821813 23.0907 0.839027 23.8244C0.934476 27.8531 25.6913 35.0369 43.1989 39.1195C39.0603 35.1482 23.4243 21.1175 9.16642 21.1175H9.16641Z" fill="#3F3D56"/>
<path d="M29.8693 38.1838C29.8693 38.1838 6.79778 36.5054 8.47571 40.7014C10.1536 44.8975 29.8693 38.1838 29.8693 38.1838Z" fill="#9F9AFF"/>
<path d="M35.742 22.6587C35.742 22.6587 34.4836 16.7842 32.3862 18.043C30.2888 19.3019 35.742 22.6587 35.742 22.6587Z" fill="#9F9AFF"/>
<path d="M56.9956 26.8152C56.9956 26.8152 62.7517 2.62025 60.1429 2.53149C57.5341 2.44273 56.9956 26.8152 56.9956 26.8152Z" fill="#9F9AFF"/>
<path d="M55.9245 32.172L55.8773 28.9588C55.8622 27.9268 55.5422 3.6451 58.6982 0.441118C58.8188 0.30631 58.9657 0.197625 59.1298 0.12176C59.294 0.0458957 59.4719 0.00445729 59.6527 0C59.8281 0.000716426 60.0009 0.0427729 60.1571 0.122758C60.3132 0.202743 60.4483 0.318408 60.5515 0.460376C62.9799 3.57175 57.3533 26.4553 56.7036 29.0544L55.9245 32.172ZM59.6527 0.839207C59.6109 0.839207 59.4839 0.839207 59.2959 1.03016C57.2116 3.14621 56.7278 17.2232 56.6995 25.502C59.0099 15.6372 61.3646 2.86551 59.8903 0.976889C59.8656 0.935654 59.8309 0.901378 59.7893 0.877291C59.7477 0.853203 59.7007 0.840097 59.6527 0.839207Z" fill="#3F3D56"/>
<path d="M83.563 30.2115C83.563 30.2115 86.0799 23.9174 88.5968 25.5959C91.1137 27.2743 83.563 30.2115 83.563 30.2115Z" fill="#9F9AFF"/>
<path d="M59.6525 86.0186C59.6525 86.0186 56.2966 110.775 62.5889 110.356C68.8811 109.936 59.6525 86.0186 59.6525 86.0186Z" fill="#9F9AFF"/>
<path d="M77.2066 80.3886C77.2066 80.3886 73.9913 75.0282 73.9913 71.276C73.9913 71.276 68.3646 65.3796 69.9722 63.7715C71.5799 62.1634 75.0631 68.3278 75.0631 68.3278C75.0631 68.3278 68.6325 61.0913 70.5081 60.0192C72.3837 58.9472 78.5463 66.9877 78.5463 66.9877L80.6898 65.9156C80.6898 65.9156 76.137 54.6831 79.3501 54.3909C80.8238 54.2569 84.1731 65.1116 84.1731 65.1116L87.6563 73.9562C87.6563 73.9562 88.996 77.1724 88.4601 79.0485C88.1336 80.1956 87.8653 81.3585 87.6563 82.5327L77.2066 80.3886Z" fill="#FFB9B9"/>
<path opacity="0.1" d="M85.5129 81.7288C85.5129 81.7288 87.3885 78.7806 86.7097 74.2789C86.0309 69.7771 82.2976 67.2559 82.2976 67.2559C82.2976 67.2559 79.8862 69.132 82.2976 73.9563C82.2976 73.9563 79.3503 76.6365 81.7618 80.9248" fill="black"/>
<path d="M86.5847 81.7288C86.5847 81.7288 88.4603 78.7806 87.7815 74.2789C87.1027 69.7771 83.3694 67.2559 83.3694 67.2559C83.3694 67.2559 80.9579 69.132 83.3694 73.9563C83.3694 73.9563 80.4221 76.6365 82.8335 80.9248" fill="#FFB9B9"/>
<path opacity="0.1" d="M79.2162 66.8537L77.7426 64.5755C77.7426 64.5755 70.7761 63.5035 71.58 65.9156C72.3838 68.3278 75.5991 67.2557 75.5991 67.2557L77.4746 69.1318L79.2162 66.8537Z" fill="black"/>
<path d="M80.422 66.7198L78.2785 63.7716C78.2785 63.7716 71.312 62.6995 72.1158 65.1117C72.9197 67.5238 76.1349 66.4518 76.1349 66.4518L78.0105 68.3279L80.422 66.7198Z" fill="#FFB9B9"/>
<path d="M130.125 101.964L128.785 112.685L149.685 114.025V101.16L130.125 101.964Z" fill="#FFB9B9"/>
<path d="M188 162L171.051 128.093C170.039 124.739 166.877 119.276 157.053 115.767L149.685 109.532L144.192 109.334L122.221 106.118C122.221 106.118 105.34 105.046 94.3549 111.747L91.4075 110.407C91.4075 110.407 86.5846 93.2534 88.7281 80.9246L76.4029 79.8525C76.4029 79.8525 69.7044 109.066 72.9196 117.911C76.1349 126.756 87.9243 133.188 87.9243 133.188L98.374 143.641L102.393 161.866H165.091L166.089 157.084L170.986 161.866L188 162Z" fill="#CFCCE0"/>
<path d="M164.303 101.161C144.562 106.493 125.161 106.87 106.169 101.243C103.936 100.582 102.41 98.6213 102.41 96.3959V40.9013C102.41 38.4182 104.299 36.3 106.873 35.8962C124.789 33.0858 143.768 33.3034 163.619 36.0011C166.242 36.3576 168.189 38.5001 168.189 41.0219V96.2785C168.189 98.5506 166.599 100.541 164.303 101.161Z" fill="#CFCCE0"/>
<path d="M123.592 63.1866C123.592 63.1866 119.052 56.5488 121.846 54.802C124.64 53.0552 128.831 57.9462 128.831 57.9462C128.831 57.9462 134.07 53.4046 136.864 55.1514C139.658 56.8981 134.07 63.1866 134.07 63.1866C134.07 63.1866 138.261 64.2347 138.61 67.0295C138.959 69.8244 140.356 77.1609 134.419 77.5103C131.238 77.6974 129.461 76.7817 128.496 75.891C128.145 75.5762 127.691 75.3996 127.22 75.394C126.748 75.3884 126.291 75.5542 125.932 75.8606C123.919 77.5574 120.293 79.5132 117.655 74.7154C116.607 67.3789 123.592 63.1866 123.592 63.1866Z" fill="#3F3D56"/>
<path d="M157.121 63.8851C157.121 63.8851 161.661 57.2473 158.867 55.5005C156.073 53.7537 151.882 58.6447 151.882 58.6447C151.882 58.6447 146.643 54.103 143.849 55.8498C141.055 57.5966 146.643 63.8851 146.643 63.8851C146.643 63.8851 142.452 64.9332 142.103 67.728C141.754 70.5229 140.357 77.8594 146.294 78.2088C149.475 78.3959 151.252 77.4802 152.217 76.5895C152.568 76.2747 153.022 76.098 153.493 76.0925C153.965 76.0869 154.422 76.2527 154.781 76.5591C156.794 78.2559 160.42 80.2117 163.058 75.4139C164.106 68.0774 157.121 63.8851 157.121 63.8851Z" fill="#3F3D56"/>
<path d="M118.08 82.0266C118.08 82.0266 124.632 87.303 138.602 86.9703C152.573 86.6377 157.091 86.0672 160.077 82.7733C163.063 79.4795 163.949 83.2838 163.021 85.7775C162.094 88.2712 160.903 92.5267 153.943 93.2164C149.361 93.6705 139.458 93.7782 133.226 93.7987C128.382 93.8388 123.592 92.773 119.222 90.6824C119.164 90.6544 119.107 90.6263 119.049 90.598C117.724 89.943 116.607 88.9303 115.827 87.6742C115.046 86.4181 114.632 84.9687 114.632 83.4897C114.632 82.3145 114.839 81.6795 115.604 81.448C116.982 81.0309 118.08 82.0266 118.08 82.0266Z" fill="#3F3D56"/>
<path d="M138.121 106.2C127.443 106.206 116.826 104.595 106.63 101.422C105.369 101.035 104.265 100.253 103.482 99.1917C102.699 98.13 102.278 96.8446 102.28 95.5251V30.5128C102.276 29.0491 102.794 27.6318 103.741 26.5158C104.688 25.3998 106.001 24.6583 107.446 24.4246C126.687 21.2523 147.993 21.2934 170.771 24.5468C172.237 24.7634 173.577 25.4987 174.548 26.6193C175.518 27.7399 176.055 29.1715 176.061 30.6541V95.3877C176.055 96.7313 175.614 98.0369 174.803 99.108C173.992 100.179 172.855 100.958 171.563 101.327C160.409 104.493 149.382 106.132 138.788 106.198C138.567 106.2 138.343 106.2 138.121 106.2ZM137.379 22.5312C127.379 22.4978 117.393 23.2814 107.52 24.8741C106.182 25.0906 104.965 25.7773 104.088 26.8109C103.211 27.8445 102.732 29.1572 102.736 30.5128V95.5251C102.733 96.7474 103.124 97.938 103.849 98.9214C104.575 99.9048 105.597 100.629 106.766 100.987C127.122 107.325 148.881 107.292 171.439 100.889L171.501 101.108L171.439 100.889C172.635 100.547 173.688 99.8258 174.44 98.8337C175.191 97.8416 175.6 96.6323 175.605 95.3877V30.6541C175.6 29.281 175.103 27.9551 174.204 26.9173C173.305 25.8794 172.064 25.1983 170.706 24.9977C159.669 23.3893 148.532 22.5651 137.379 22.5312V22.5312Z" fill="#3F3D56"/>
<path d="M135.98 32.1706C130.963 32.1706 126.669 31.9455 123.154 31.6404C112.097 30.6811 106.139 28.7451 106.08 28.7256L106.223 28.2929C106.281 28.3123 112.203 30.2349 123.214 31.1884C133.377 32.0687 150.077 32.2794 171.921 28.2852L172.003 28.7334C157.652 31.3573 145.512 32.1706 135.98 32.1706Z" fill="#3F3D56"/>
</g>
<defs>
<clipPath id="clip0">
<rect width="188" height="162" fill="white"/>
</clipPath>
</defs>
</svg>
