<svg width="151" height="143" viewBox="0 0 151 143" fill="none" xmlns="http://www.w3.org/2000/svg">
<g clip-path="url(#clip0)">
<path opacity="0.1" d="M152.534 111.102C152.534 111.102 147.104 112.778 146.282 111.326C146.073 110.957 145.97 110.312 145.934 109.554C147.057 109.385 150.476 108.915 152.327 109.268C152.426 110.305 152.534 111.102 152.534 111.102Z" fill="black"/>
<path d="M141.976 53.9524L141.152 54.9576C141.152 54.9576 141.228 59.2756 140.59 60.3188C139.952 61.362 142.351 67.467 143.25 67.094C144.148 66.7209 146.17 57.1914 146.17 57.0797C146.17 56.9681 141.976 53.9524 141.976 53.9524Z" fill="#575A89"/>
<path d="M141.902 60.0952C141.902 60.0952 139.281 62.7378 139.467 64.0044C139.653 65.271 142.162 69.2494 145.756 67.1116C145.756 67.1116 149.09 60.8771 141.902 60.0952Z" fill="#575A89"/>
<path opacity="0.1" d="M152.634 139.255C151.981 139.28 148.266 139.255 148.266 139.255C148.211 139.199 148.16 139.139 148.113 139.077C149.063 138.755 151.116 138.272 152.634 139.255Z" fill="black"/>
<path opacity="0.1" d="M149.649 70.6748C149.634 70.753 149.362 71.9414 148.948 73.7753C149.11 72.2094 149.335 71.0858 149.649 70.6748Z" fill="black"/>
<path opacity="0.1" d="M152.084 36.7228C152.253 36.7095 152.423 36.7269 152.585 36.7742C152.824 36.8924 153.038 37.0529 153.219 37.2478C153.512 37.4912 153.862 37.6568 154.237 37.7291C154.611 37.8014 154.998 37.778 155.362 37.661C155.618 37.5472 155.89 37.4719 156.168 37.4377C156.597 37.4377 156.968 37.7504 157.19 38.1078C157.412 38.4652 157.527 38.8897 157.718 39.2716C157.909 39.6536 158.214 40.0155 158.634 40.1093C158.836 40.1171 159.034 40.1626 159.218 40.2433C159.332 40.3347 159.418 40.4541 159.47 40.5896C159.82 41.3424 160.099 42.2315 160.847 42.6C161.122 42.7268 161.422 42.7917 161.725 42.7899C162.034 42.8124 162.343 42.7571 162.624 42.6291C162.9 42.4755 163.129 42.249 163.284 41.9746C163.751 41.2061 163.805 40.2545 163.695 39.3632C163.558 38.2388 163.156 37.1626 162.52 36.2225C161.851 35.2716 160.941 34.5143 159.881 34.0281C158.821 33.5418 157.651 33.344 156.489 33.4548C156.084 33.5001 155.682 33.5748 155.288 33.6781C153.859 34.0579 152.457 34.7682 151.59 35.9589C151.381 36.2561 151.15 36.5382 150.901 36.8033C151.294 36.7653 151.689 36.7318 152.084 36.7228Z" fill="black"/>
<path opacity="0.1" d="M146.356 49C146.356 49 146.619 51.0864 145.721 51.6069C144.822 52.1273 146.356 49 146.356 49Z" fill="black"/>
<path opacity="0.1" d="M151.035 46.5652C151.035 46.5652 147.875 46.7662 147.855 47.213C147.834 47.6598 151.035 46.5652 151.035 46.5652Z" fill="black"/>
<path opacity="0.1" d="M145.752 59.0812C144.953 57.6471 145.056 56.0633 145.961 55.4624C145.927 55.478 145.891 55.4914 145.858 55.5093C144.865 56.0588 144.735 57.7052 145.557 59.1884C146.379 60.6717 147.861 61.4223 148.854 60.8817C148.887 60.8629 148.919 60.842 148.949 60.8191C147.958 61.2659 146.552 60.5153 145.752 59.0812Z" fill="black"/>
<path opacity="0.1" d="M146.822 46.9873L146.532 47.4341L145.793 47.0432L146.181 46.449C146.438 46.5698 146.659 46.7554 146.822 46.9873V46.9873Z" fill="black"/>
<path d="M142.127 63.5198C142.127 63.5198 142.785 60.4416 141.902 59.4632C141.019 58.4848 141.302 53.3559 142.65 53.4676C143.998 53.5793 146.019 57.6359 145.682 58.4937C145.345 59.3515 144.072 63.7432 144.072 63.7432L142.127 63.5198Z" fill="#FBBEBE"/>
<path d="M143.122 65.9614C144.238 65.9614 145.143 65.3513 145.143 64.5987C145.143 63.8462 144.238 63.2361 143.122 63.2361C142.005 63.2361 141.1 63.8462 141.1 64.5987C141.1 65.3513 142.005 65.9614 143.122 65.9614Z" fill="#575A89"/>
<path d="M77.2262 140.448C115.498 140.448 146.523 109.595 146.523 71.5348C146.523 33.475 115.498 2.62134 77.2262 2.62134C38.9548 2.62134 7.92969 33.475 7.92969 71.5348C7.92969 109.595 38.9548 140.448 77.2262 140.448Z" fill="#9F9AFF"/>
<path d="M113.586 106.166C113.586 117.044 96.3888 107.095 77.9516 107.095C59.5145 107.095 40.8662 116.633 40.8662 105.755C40.8662 99.5514 46.8098 90.9244 55.3365 84.6585C61.7607 79.9362 69.6495 76.5542 77.5743 76.5542C85.7236 76.5542 93.7068 80.2154 100.075 85.2415C108.112 91.5789 113.586 100.094 113.586 106.166Z" fill="#444053"/>
<path d="M100.073 85.2372C90.2722 83.7695 72.5471 81.9802 55.3364 84.6541C61.7607 79.9318 69.6495 76.5498 77.5742 76.5498C85.7213 76.5498 93.7044 80.211 100.073 85.2372Z" fill="#F6F8FB"/>
<path opacity="0.05" d="M40.8663 22.8887C40.8663 22.8887 19.9919 36.1598 20.1627 56.9188C20.3334 77.6777 40.8663 22.8887 40.8663 22.8887Z" fill="black"/>
<path d="M52.5892 62.4988C53.9077 62.4251 60.1141 61.9604 64.0563 59.7244C64.6894 59.354 65.4046 59.1445 66.1385 59.1145C67.3919 59.0788 68.834 59.5993 67.9108 62.5122C66.4148 67.2769 57.7286 72.6381 52.3376 72.341C47.1533 72.0551 41.0031 69.9776 36.9419 62.673C36.5528 61.9703 36.3611 61.1763 36.3871 60.3744C36.4343 58.9001 36.9734 57.0527 39.7564 59.1123C43.5167 61.8934 50.6507 62.4206 52.0816 62.4988C52.2507 62.5078 52.4201 62.5078 52.5892 62.4988V62.4988Z" fill="#444053"/>
<path d="M102.456 62.4988C103.774 62.4251 109.981 61.9604 113.923 59.7244C114.556 59.354 115.271 59.1445 116.005 59.1145C117.259 59.0788 118.701 59.5993 117.778 62.5122C116.282 67.2769 107.595 72.6381 102.204 72.341C97.02 72.0551 90.8698 69.9776 86.8086 62.673C86.4195 61.9703 86.2278 61.1763 86.2538 60.3744C86.301 58.9001 86.8401 57.0527 89.6231 59.1123C93.3834 61.8934 100.517 62.4206 101.948 62.4988C102.117 62.5078 102.287 62.5078 102.456 62.4988V62.4988Z" fill="#444053"/>
</g>
<defs>
<clipPath id="clip0">
<rect width="151" height="143" fill="white"/>
</clipPath>
</defs>
</svg>
